{
  "accessors": [
    {
      "bufferView": 2,
      "componentType": 5126,
      "count": 12473,
      "max": [
        9.631986618041992,
        7.257845878601074,
        9.412555694580078
      ],
      "min": [
        -10.086915969848633,
        1.8831610679626465,
        -9.840007781982422
      ],
      "type": "VEC3"
    },
    {
      "bufferView": 2,
      "byteOffset": 149676,
      "componentType": 5126,
      "count": 12473,
      "max": [
        1.0,
        1.0,
        1.0
      ],
      "min": [
        -1.0,
        -1.0,
        -1.0
      ],
      "type": "VEC3"
    },
    {
      "bufferView": 3,
      "componentType": 5126,
      "count": 12473,
      "max": [
        1.0,
        1.0,
        1.0,
        1.0
      ],
      "min": [
        -1.0,
        -1.0,
        -1.0,
        -1.0
      ],
      "type": "VEC4"
    },
    {
      "bufferView": 1,
      "componentType": 5126,
      "count": 12473,
      "max": [
        0.9874418377876282,
        0.9956766963005066
      ],
      "min": [
        0.003001842647790909,
        0.0007424321956932545
      ],
      "type": "VEC2"
    },
    {
      "bufferView": 1,
      "byteOffset": 99784,
      "componentType": 5126,
      "count": 12473,
      "max": [
        0.9874418377876282,
        0.9956766963005066
      ],
      "min": [
        0.003001842647790909,
        0.0007424321956932545
      ],
      "type": "VEC2"
    },
    {
      "bufferView": 1,
      "byteOffset": 199568,
      "componentType": 5126,
      "count": 12473,
      "max": [
        0.9874418377876282,
        0.9956766963005066
      ],
      "min": [
        0.003001842647790909,
        0.0007424321956932545
      ],
      "type": "VEC2"
    },
    {
      "bufferView": 1,
      "byteOffset": 299352,
      "componentType": 5126,
      "count": 12473,
      "max": [
        0.9874418377876282,
        0.9956766963005066
      ],
      "min": [
        0.003001842647790909,
        0.0007424321956932545
      ],
      "type": "VEC2"
    },
    {
      "bufferView": 1,
      "byteOffset": 399136,
      "componentType": 5126,
      "count": 12473,
      "max": [
        0.9874418377876282,
        0.9956766963005066
      ],
      "min": [
        0.003001842647790909,
        0.0007424321956932545
      ],
      "type": "VEC2"
    },
    {
      "bufferView": 0,
      "componentType": 5125,
      "count": 35118,
      "type": "SCALAR"
    },
    {
      "bufferView": 2,
      "byteOffset": 299352,
      "componentType": 5126,
      "count": 4913,
      "max": [
        10.321353912353516,
        8.4100341796875,
        10.0
      ],
      "min": [
        -10.000000953674316,
        0.0,
        -10.512988090515137
      ],
      "type": "VEC3"
    },
    {
      "bufferView": 2,
      "byteOffset": 358308,
      "componentType": 5126,
      "count": 4913,
      "max": [
        1.0,
        1.0,
        1.0
      ],
      "min": [
        -1.0,
        -1.0,
        -1.0
      ],
      "type": "VEC3"
    },
    {
      "bufferView": 3,
      "byteOffset": 199568,
      "componentType": 5126,
      "count": 4913,
      "max": [
        1.0,
        1.0,
        1.0,
        1.0
      ],
      "min": [
        -1.0,
        -1.0,
        -1.0,
        -1.0
      ],
      "type": "VEC4"
    },
    {
      "bufferView": 1,
      "byteOffset": 498920,
      "componentType": 5126,
      "count": 4913,
      "max": [
        0.9970434904098511,
        0.9923520684242249
      ],
      "min": [
        0.0029410123825073242,
        0.0031292468775063753
      ],
      "type": "VEC2"
    },
    {
      "bufferView": 1,
      "byteOffset": 538224,
      "componentType": 5126,
      "count": 4913,
      "max": [
        0.9970434904098511,
        0.9923520684242249
      ],
      "min": [
        0.0029410123825073242,
        0.0031292468775063753
      ],
      "type": "VEC2"
    },
    {
      "bufferView": 1,
      "byteOffset": 577528,
      "componentType": 5126,
      "count": 4913,
      "max": [
        0.9970434904098511,
        0.9923520684242249
      ],
      "min": [
        0.0029410123825073242,
        0.0031292468775063753
      ],
      "type": "VEC2"
    },
    {
      "bufferView": 1,
      "byteOffset": 616832,
      "componentType": 5126,
      "count": 4913,
      "max": [
        0.9970434904098511,
        0.9923520684242249
      ],
      "min": [
        0.0029410123825073242,
        0.0031292468775063753
      ],
      "type": "VEC2"
    },
    {
      "bufferView": 1,
      "byteOffset": 656136,
      "componentType": 5126,
      "count": 4913,
      "max": [
        0.9970434904098511,
        0.9923520684242249
      ],
      "min": [
        0.0029410123825073242,
        0.0031292468775063753
      ],
      "type": "VEC2"
    },
    {
      "bufferView": 0,
      "byteOffset": 140472,
      "componentType": 5125,
      "count": 13284,
      "type": "SCALAR"
    }
  ],
  "asset": {
    "extras": {
      "author": "Kit2K2 (https://sketchfab.com/Kit2K2)",
      "license": "CC-BY-4.0 (http://creativecommons.org/licenses/by/4.0/)",
      "source": "https://sketchfab.com/3d-models/cubicle-japanese-gas-station-508873c9dc474890ad3ad6573334f3aa",
      "title": "Cubicle Japanese Gas Station"
    },
    "generator": "Sketchfab-15.19.0",
    "version": "2.0"
  },
  "bufferViews": [
    {
      "buffer": 0,
      "byteLength": 193608,
      "name": "floatBufferViews",
      "target": 34963
    },
    {
      "buffer": 0,
      "byteLength": 695440,
      "byteOffset": 193608,
      "byteStride": 8,
      "name": "floatBufferViews",
      "target": 34962
    },
    {
      "buffer": 0,
      "byteLength": 417264,
      "byteOffset": 889048,
      "byteStride": 12,
      "name": "floatBufferViews",
      "target": 34962
    },
    {
      "buffer": 0,
      "byteLength": 278176,
      "byteOffset": 1306312,
      "byteStride": 16,
      "name": "floatBufferViews",
      "target": 34962
    }
  ],
  "buffers": [
    {
      "byteLength": 1584488,
      "uri": "scene.bin"
    }
  ],
  "images": [
    {
      "uri": "textures/Props_baseColor.png"
    },
    {
      "uri": "textures/Props_metallicRoughness.png"
    },
    {
      "uri": "textures/Props_emissive.png"
    },
    {
      "uri": "textures/Props_normal.png"
    },
    {
      "uri": "textures/Environment_baseColor.png"
    },
    {
      "uri": "textures/Environment_metallicRoughness.png"
    },
    {
      "uri": "textures/Environment_emissive.png"
    },
    {
      "uri": "textures/Environment_normal.png"
    }
  ],
  "materials": [
    {
      "doubleSided": true,
      "emissiveFactor": [
        1.0,
        1.0,
        1.0
      ],
      "emissiveTexture": {
        "index": 2
      },
      "name": "Props",
      "normalTexture": {
        "index": 3
      },
      "pbrMetallicRoughness": {
        "baseColorTexture": {
          "index": 0
        },
        "metallicRoughnessTexture": {
          "index": 1
        }
      }
    },
    {
      "doubleSided": true,
      "emissiveFactor": [
        1.0,
        1.0,
        1.0
      ],
      "emissiveTexture": {
        "index": 6
      },
      "name": "Environment",
      "normalTexture": {
        "index": 7
      },
      "pbrMetallicRoughness": {
        "baseColorTexture": {
          "index": 4
        },
        "metallicRoughnessTexture": {
          "index": 5
        }
      }
    }
  ],
  "meshes": [
    {
      "name": "Object_0",
      "primitives": [
        {
          "attributes": {
            "NORMAL": 1,
            "POSITION": 0,
            "TANGENT": 2,
            "TEXCOORD_0": 3,
            "TEXCOORD_1": 4,
            "TEXCOORD_2": 5,
            "TEXCOORD_3": 6,
            "TEXCOORD_4": 7
          },
          "indices": 8,
          "material": 0,
          "mode": 4
        }
      ]
    },
    {
      "name": "Object_1",
      "primitives": [
        {
          "attributes": {
            "NORMAL": 10,
            "POSITION": 9,
            "TANGENT": 11,
            "TEXCOORD_0": 12,
            "TEXCOORD_1": 13,
            "TEXCOORD_2": 14,
            "TEXCOORD_3": 15,
            "TEXCOORD_4": 16
          },
          "indices": 17,
          "material": 1,
          "mode": 4
        }
      ]
    }
  ],
  "nodes": [
    {
      "children": [
        1
      ],
      "matrix": [
        1.0,
        0.0,
        0.0,
        0.0,
        0.0,
        2.220446049250313e-16,
        -1.0,
        0.0,
        0.0,
        1.0,
        2.220446049250313e-16,
        0.0,
        0.0,
        0.0,
        0.0,
        1.0
      ],
      "name": "Sketchfab_model"
    },
    {
      "children": [
        2
      ],
      "name": "root"
    },
    {
      "children": [
        3,
        5
      ],
      "matrix": [
        1.0,
        0.0,
        0.0,
        0.0,
        0.0,
        2.220446049250313e-16,
        1.0,
        0.0,
        0.0,
        -1.0,
        2.220446049250313e-16,
        0.0,
        0.0,
        0.0,
        0.0,
        1.0
      ],
      "name": "GLTF_SceneRootNode"
    },
    {
      "children": [
        4
      ],
      "name": "Part2_3"
    },
    {
      "mesh": 0,
      "name": "Object_4"
    },
    {
      "children": [
        6
      ],
      "name": "Part1_4"
    },
    {
      "mesh": 1,
      "name": "Object_6"
    }
  ],
  "samplers": [
    {
      "magFilter": 9729,
      "minFilter": 9987,
      "wrapS": 10497,
      "wrapT": 10497
    }
  ],
  "scene": 0,
  "scenes": [
    {
      "name": "Sketchfab_Scene",
      "nodes": [
        0
      ]
    }
  ],
  "textures": [
    {
      "sampler": 0,
      "source": 0
    },
    {
      "sampler": 0,
      "source": 1
    },
    {
      "sampler": 0,
      "source": 2
    },
    {
      "sampler": 0,
      "source": 3
    },
    {
      "sampler": 0,
      "source": 4
    },
    {
      "sampler": 0,
      "source": 5
    },
    {
      "sampler": 0,
      "source": 6
    },
    {
      "sampler": 0,
      "source": 7
    }
  ]
}
